<svg xmlns="http://www.w3.org/2000/svg" viewBox="0 0 24 24" fill="foreground" class="w-6 h-6">
  <path d="M12 0C5.373 0 0 5.373 0 12c0 5.303 3.438 9.8 8.205 11.387.6.11.82-.26.82-.577v-2.234c-3.338.726-4.042-1.415-4.042-1.415-.546-1.387-1.333-1.757-1.333-1.757-1.09-.745.083-.73.083-.73 1.205.084 1.838 1.236 1.838 1.236 1.07 1.834 2.807 1.305 3.492.998.108-.775.42-1.305.763-1.605-2.665-.305-5.467-1.332-5.467-5.93 0-1.31.467-2.38 1.236-3.22-.124-.304-.536-1.527.117-3.18 0 0 1.01-.323 3.3 1.23.96-.267 1.98-.4 3-.405 1.02.005 2.04.138 3 .405 2.29-1.553 3.3-1.23 3.3-1.23.653 1.653.242 2.876.118 3.18.77.84 1.236 1.91 1.236 3.22 0 4.61-2.807 5.625-5.48 5.92.432.372.815 1.102.815 2.222v3.293c0 .32.218.694.825.576C20.565 21.796 24 17.303 24 12c0-6.627-5.373-12-12-12z" />
</svg>
