<svg xmlns="http://www.w3.org/2000/svg" viewBox="0 0 24 24" fill="foreground" class="w-6 h-6">
  <path d="M20.447 20.452H17.24v-5.569c0-1.328-.027-3.036-1.85-3.036-1.853 0-2.137 1.445-2.137 2.938v5.667H9.035V9h3.229v1.561h.046c.45-.85 1.548-1.746 3.183-1.746 3.404 0 4.03 2.238 4.03 5.146v6.491zM5.337 7.433a1.874 1.874 0 01-1.871-1.875c0-1.033.837-1.871 1.871-1.871s1.871.838 1.871 1.871a1.874 1.874 0 01-1.871 1.875zm1.633 13.019H3.707V9h3.263v11.452zM22.225 0H1.771C.792 0 0 .771 0 1.729v20.542C0 23.229.792 24 1.771 24h20.451C23.208 24 24 23.229 24 22.271V1.729C24 .771 23.208 0 22.225 0z" />
</svg>
